<svg xmlns="http://www.w3.org/2000/svg" viewBox="430 170 1140 1210">
<path fill="#FFFFFF" stroke="none" d="
M605.972168,292.030945 
	C626.330078,311.481537 645.588562,331.575256 668.584778,347.590088 
	C716.796387,381.165314 765.116272,414.604248 812.696777,449.058899 
	C839.245728,468.283966 864.406738,489.426331 890.180664,509.720703 
	C906.535767,522.598755 922.858398,535.518188 939.226685,548.379395 
	C940.641113,549.490662 942.289917,550.303589 943.829895,551.255127 
	C944.187622,550.903503 944.545349,550.551941 944.903076,550.200378 
	C943.963074,548.634460 943.122009,546.998291 942.068115,545.513306 
	C929.172241,527.343689 919.044861,507.812927 912.982788,486.296906 
	C906.311096,462.617218 905.632202,438.820923 910.868225,414.704926 
	C919.441772,375.217224 927.489685,335.615601 935.995483,296.112854 
	C938.337402,285.236328 941.576538,274.555115 944.299500,263.757904 
	C948.472107,247.213013 957.725281,233.079041 965.962524,218.500473 
	C967.158752,216.383392 970.924744,214.198181 973.095398,214.549973 
	C975.611450,214.957764 978.626160,217.688995 979.792725,220.176804 
	C990.088684,242.132141 1000.019958,264.258484 1010.062195,286.332794 
	C1019.416199,306.894135 1029.402344,327.196350 1037.958252,348.084473 
	C1046.952881,370.043915 1054.518677,392.586487 1062.818970,414.833130 
	C1079.069824,458.388824 1096.150391,501.603851 1116.100708,543.631287 
	C1116.808838,545.123169 1117.334351,546.714233 1117.818237,548.297791 
	C1119.412354,553.514771 1122.484863,554.914062 1126.577759,551.353882 
	C1130.381958,548.044861 1132.998413,543.394775 1136.703491,539.942139 
	C1144.609375,532.575073 1152.323486,524.799622 1161.139404,518.660767 
	C1173.243530,510.232269 1185.893311,502.367554 1199.049438,495.727722 
	C1213.881104,488.242249 1229.886963,483.526245 1246.719116,483.108856 
	C1273.466675,482.445587 1295.566650,492.346619 1312.647705,513.102417 
	C1315.066650,516.041809 1318.076904,518.690247 1319.740479,522.010986 
	C1322.393433,527.306580 1326.370728,527.823059 1331.213257,526.589478 
	C1352.321899,521.212158 1373.417114,515.782227 1394.509644,510.341339 
	C1430.803955,500.979004 1467.016357,491.167511 1504.285522,486.380676 
	C1514.141113,485.114807 1524.196289,485.347931 1534.164917,485.070374 
	C1536.005615,485.019135 1537.870239,485.821381 1539.930298,487.479614 
	C1538.648438,488.145966 1537.436401,489.082245 1536.073364,489.434784 
	C1527.315674,491.700043 1518.412476,493.468292 1509.769165,496.096619 
	C1493.671021,500.991821 1477.622437,506.089355 1461.734619,511.623535 
	C1449.200439,515.989624 1436.859131,520.943420 1424.569580,525.972412 
	C1380.558105,543.982300 1338.912720,566.238586 1302.077515,596.601929 
	C1274.768188,619.113159 1251.527588,645.277161 1237.150024,678.020813 
	C1224.463501,706.913208 1212.578857,736.178894 1201.161987,765.598755 
	C1195.499268,780.190796 1191.915283,795.576233 1186.987671,810.469360 
	C1174.380127,848.574341 1158.553467,885.035400 1131.801147,915.742981 
	C1123.316895,925.481628 1115.095825,935.469971 1106.246094,944.865356 
	C1089.706055,962.425415 1070.795410,977.014221 1049.659302,988.746704 
	C1033.035156,997.974731 1015.588196,1005.272766 997.087830,1009.319092 
	C970.245117,1015.189819 944.887146,1025.200195 919.317627,1034.827393 
	C890.830750,1045.553345 863.818359,1059.045044 838.478882,1075.856689 
	C824.388123,1085.205322 811.498718,1095.967407 799.844971,1108.340576 
	C786.711609,1122.284668 772.904358,1135.595581 759.313293,1149.104370 
	C758.191040,1150.219971 756.480896,1150.743896 754.225464,1151.997681 
	C754.225464,1142.405396 754.225464,1133.997192 754.225464,1125.588989 
	C753.856934,1125.452515 753.488403,1125.316162 753.119812,1125.179810 
	C750.397949,1130.238281 747.651062,1135.283447 744.958496,1140.357666 
	C734.338501,1160.371826 723.734375,1180.394287 713.128906,1200.416016 
	C712.586426,1201.440063 712.348694,1202.886963 711.510010,1203.437378 
	C709.864746,1204.516968 707.926086,1205.520142 706.043396,1205.657349 
	C705.420837,1205.702759 703.982605,1202.998413 703.962097,1201.536499 
	C703.786743,1189.039673 703.851746,1176.539429 703.845093,1164.040283 
	C703.844116,1162.235107 703.844910,1160.430054 703.844910,1157.213379 
	C699.749329,1160.716553 696.463684,1163.284302 693.452393,1166.141235 
	C670.399780,1188.011719 647.593689,1210.146118 624.324280,1231.782715 
	C605.490417,1249.295044 586.436401,1266.599976 566.903625,1283.323730 
	C543.713623,1303.178833 519.925842,1322.367188 493.867432,1338.428955 
	C486.080414,1343.228760 477.668518,1347.048950 469.380737,1350.975586 
	C467.568329,1351.834229 465.063782,1351.231934 462.877991,1351.302490 
	C463.006134,1348.958862 462.333435,1346.135376 463.400482,1344.354126 
	C468.143066,1336.437500 472.945129,1328.483643 478.542358,1321.168091 
	C488.116333,1308.654663 498.093292,1296.432007 508.300293,1284.426636 
	C515.435547,1276.034302 523.277222,1268.245361 530.728516,1260.118286 
	C538.422424,1251.726562 546.066284,1243.288208 553.659729,1234.805542 
	C567.234558,1219.640991 580.821899,1204.486816 594.276550,1189.215942 
	C604.422058,1177.701172 614.434875,1166.067505 624.386108,1154.383911 
	C635.509216,1141.324585 646.479309,1128.135132 657.547424,1115.028809 
	C666.621094,1104.284180 676.223694,1093.944580 684.706116,1082.754028 
	C693.401611,1071.282349 701.546936,1059.307007 708.890381,1046.933350 
	C712.583679,1040.710205 713.890564,1033.087769 716.407166,1026.145508 
	C720.998291,1013.480652 725.385193,1000.729736 730.413879,988.238831 
	C736.147949,973.995911 741.982361,959.751221 748.685425,945.950256 
	C759.238892,924.221985 770.593079,902.928467 784.164001,882.820923 
	C802.202942,856.093506 819.515137,828.876221 837.231384,801.929871 
	C840.616455,796.781128 845.175354,792.278992 847.850586,786.820801 
	C851.125122,780.139404 848.966125,773.579407 844.375305,767.819641 
	C835.218689,756.331421 822.548279,750.001831 809.663574,743.965088 
	C799.550476,739.226868 789.341125,734.683472 779.335999,729.727661 
	C757.491150,718.907593 735.558472,708.238770 714.035278,696.804993 
	C700.783813,689.765381 687.793335,682.042847 675.492432,673.469421 
	C666.468140,667.179504 658.640137,659.133789 650.486755,651.644287 
	C641.592712,643.474426 632.651306,635.323181 624.232056,626.675537 
	C596.556885,598.249634 572.967224,566.787415 553.988525,531.854553 
	C543.425293,512.411438 534.120667,492.413361 527.911438,471.230103 
	C521.029785,447.752991 515.234375,423.949799 509.312164,400.202271 
	C506.169769,387.601471 503.316528,374.893341 501.139496,362.096405 
	C498.707336,347.799713 496.992584,333.370209 495.328857,318.956573 
	C493.668701,304.573669 492.011597,290.165070 491.161713,275.720184 
	C490.056793,256.940094 489.776703,238.112091 489.084564,219.306808 
	C488.860077,213.207581 491.725220,208.891083 497.032745,206.554214 
	C502.866089,203.985809 509.041229,203.517426 514.316833,207.905853 
	C522.082336,214.365494 529.726257,220.991226 537.136963,227.853973 
	C560.067017,249.088745 582.862366,270.469025 605.972168,292.030945 
M947.078247,554.440796 
	C947.078247,554.440796 947.330872,554.600342 947.818176,555.029236 
	C948.163147,554.959290 948.508057,554.889404 948.853027,554.819519 
	C948.582764,554.530640 948.312500,554.241821 947.904541,553.334778 
	C947.588135,553.064941 947.271729,552.795105 946.145874,552.528687 
	C946.430847,553.069885 946.715759,553.611023 947.078247,554.440796 
M688.715149,1082.240112 
	C685.220093,1087.100952 682.070923,1092.260742 678.171997,1096.772583 
	C657.806946,1120.338745 637.151611,1143.654053 616.796448,1167.228638 
	C602.646790,1183.616089 589.198486,1200.621460 574.761536,1216.746216 
	C550.540466,1243.798706 525.339111,1269.982422 501.432251,1297.303467 
	C489.194946,1311.288452 478.815338,1326.906128 467.742462,1341.893921 
	C466.220642,1343.953857 465.546844,1346.640137 464.480438,1349.036377 
	C465.033691,1349.567139 465.586945,1350.097900 466.140198,1350.628662 
	C474.843048,1345.946045 483.890533,1341.802002 492.190277,1336.489624 
	C532.457153,1310.716919 568.829956,1279.945068 603.829346,1247.578979 
	C636.978271,1216.923828 669.472351,1185.560547 702.271240,1154.526611 
	C703.251892,1153.598633 704.420044,1152.868774 706.137878,1151.561890 
	C706.137878,1158.242310 706.137939,1163.901001 706.137939,1169.559692 
	C706.137939,1175.392700 705.908936,1181.237305 706.205200,1187.055176 
	C706.476624,1192.385010 704.871033,1197.985229 707.823853,1204.301514 
	C709.289856,1202.057739 710.172974,1200.914917 710.838318,1199.656982 
	C723.368713,1175.964966 735.810730,1152.225708 748.466187,1128.600708 
	C749.964294,1125.804077 752.600891,1123.617188 754.709656,1121.147705 
	C755.366943,1124.232422 756.424805,1127.295410 756.594116,1130.406738 
	C756.901917,1136.062012 756.681519,1141.745972 756.681519,1147.769653 
	C769.827942,1134.875122 782.154541,1122.482666 794.823792,1110.451050 
	C805.429565,1100.379028 815.766235,1089.841064 827.397217,1081.067261 
	C856.040100,1059.460205 888.094055,1043.764893 921.559692,1031.263794 
	C945.199646,1022.433167 969.185486,1014.215027 993.548584,1007.716980 
	C1020.920776,1000.416321 1046.226807,989.543518 1069.571167,973.541016 
	C1093.683960,957.011841 1112.132568,934.895142 1130.952026,913.094543 
	C1150.567749,890.371277 1164.434326,864.202026 1174.927612,836.343079 
	C1182.005981,817.550354 1186.985474,797.976868 1193.697021,779.033630 
	C1200.359497,760.229309 1207.560669,741.584167 1215.352661,723.220154 
	C1224.443237,701.796021 1233.104004,680.019714 1244.324341,659.706970 
	C1263.465210,625.055054 1292.352051,599.065918 1324.605103,576.768982 
	C1378.735840,539.347839 1438.882202,515.002136 1501.445068,496.011932 
	C1510.224121,493.347198 1519.116577,491.056213 1528.854248,488.341949 
	C1527.466309,487.712067 1527.047729,487.338074 1526.676514,487.380280 
	C1511.981079,489.052429 1497.168823,490.066437 1482.621582,492.600647 
	C1442.599731,499.572784 1403.537842,510.607056 1364.414551,521.388977 
	C1352.140747,524.771484 1339.433228,526.581604 1326.921509,529.097778 
	C1323.366699,529.812683 1321.331787,528.083313 1319.113037,525.321045 
	C1313.292114,518.074768 1307.549438,510.582886 1300.693848,504.385651 
	C1282.274902,487.735535 1260.170288,483.091858 1236.050659,486.680634 
	C1213.156250,490.087128 1192.888794,500.042633 1173.971802,512.776001 
	C1160.896973,521.576782 1147.604614,530.249023 1137.861938,543.174988 
	C1134.796509,547.242004 1131.006592,550.919250 1126.999268,554.078430 
	C1122.480103,557.640991 1118.031128,555.976929 1115.879395,550.574097 
	C1114.960693,548.267090 1114.299683,545.854248 1113.326050,543.572937 
	C1100.917725,514.501587 1088.284546,485.524567 1076.082275,456.367218 
	C1056.437622,409.426392 1042.389404,360.306000 1020.169250,314.330383 
	C1005.401489,283.774292 991.991333,252.563141 977.786499,221.731323 
	C976.886902,219.778763 974.497192,217.591400 972.556152,217.330109 
	C970.989624,217.119247 968.459778,219.281555 967.373169,221.024414 
	C955.585632,239.930359 946.603821,260.010590 941.955444,281.945862 
	C933.064087,323.903229 924.193420,365.867279 914.878540,407.731628 
	C910.532959,427.261963 908.073181,446.838898 911.323242,466.654419 
	C917.578064,504.789764 935.371704,537.204224 961.551147,565.275391 
	C962.536255,566.331665 963.361572,567.536926 964.261353,568.672791 
	C963.832031,569.128784 963.402649,569.584778 962.973328,570.040771 
	C961.247070,568.736572 959.496826,567.462830 957.798096,566.123779 
	C911.233337,529.417786 865.159424,492.065704 817.947632,456.211914 
	C784.944336,431.148438 750.721619,407.638977 716.437439,384.326813 
	C673.216675,354.938141 632.304810,322.994141 595.246460,285.932251 
	C569.470642,260.153992 541.804138,236.266479 514.991333,211.524536 
	C510.627869,207.498077 505.814209,205.437378 499.989899,208.129288 
	C494.269806,210.773026 491.357117,215.184219 491.737732,221.636276 
	C493.550720,252.368301 494.343384,283.200195 497.377594,313.810364 
	C501.136200,351.728394 508.870361,389.066650 518.118958,426.048584 
	C526.692871,460.332672 536.879639,494.020294 553.571350,525.439453 
	C576.057190,567.765076 604.867126,605.307251 639.740479,638.008789 
	C655.235657,652.539001 671.193420,667.127625 688.944641,678.586121 
	C726.614380,702.902222 767.576294,721.312561 808.285095,739.988708 
	C820.897339,745.774902 833.264343,751.932190 843.193420,761.908020 
	C848.766174,767.506897 853.454895,774.292175 851.686157,782.280945 
	C850.391235,788.129517 846.449707,793.552063 843.052490,798.749268 
	C821.643555,831.501648 799.602173,863.849548 778.646362,896.887146 
	C753.551392,936.450317 736.232727,979.752869 720.120667,1023.540039 
	C715.143677,1037.065918 711.674683,1051.187012 702.116577,1062.706787 
	C697.247009,1068.575562 693.399597,1075.292358 688.715149,1082.240112 
M703.766785,1157.615723 
	C703.547791,1157.607666 703.328796,1157.599609 703.109802,1157.591553 
	C703.214966,1157.713257 703.320129,1157.834961 703.766785,1157.615723 
z"/>
<path fill="#FFFFFF" stroke="none" d="
M688.902649,1081.932983 
	C693.399597,1075.292358 697.247009,1068.575562 702.116577,1062.706787 
	C711.674683,1051.187012 715.143677,1037.065918 720.120667,1023.540039 
	C736.232727,979.752869 753.551392,936.450317 778.646362,896.887146 
	C799.602173,863.849548 821.643555,831.501648 843.052490,798.749268 
	C846.449707,793.552063 850.391235,788.129517 851.686157,782.280945 
	C853.454895,774.292175 848.766174,767.506897 843.193420,761.908020 
	C833.264343,751.932190 820.897339,745.774902 808.285095,739.988708 
	C767.576294,721.312561 726.614380,702.902222 688.944641,678.586121 
	C671.193420,667.127625 655.235657,652.539001 639.740479,638.008789 
	C604.867126,605.307251 576.057190,567.765076 553.571350,525.439453 
	C536.879639,494.020294 526.692871,460.332672 518.118958,426.048584 
	C508.870361,389.066650 501.136200,351.728394 497.377594,313.810364 
	C494.343384,283.200195 493.550720,252.368301 491.737732,221.636276 
	C491.357117,215.184219 494.269806,210.773026 499.989899,208.129288 
	C505.814209,205.437378 510.627869,207.498077 514.991333,211.524536 
	C541.804138,236.266479 569.470642,260.153992 595.246460,285.932251 
	C632.304810,322.994141 673.216675,354.938141 716.437439,384.326813 
	C750.721619,407.638977 784.944336,431.148438 817.947632,456.211914 
	C865.159424,492.065704 911.233337,529.417786 957.798096,566.123779 
	C959.496826,567.462830 961.247070,568.736572 962.973328,570.040771 
	C963.402649,569.584778 963.832031,569.128784 964.261353,568.672791 
	C963.361572,567.536926 962.536255,566.331665 961.551147,565.275391 
	C935.371704,537.204224 917.578064,504.789764 911.323242,466.654419 
	C908.073181,446.838898 910.532959,427.261963 914.878540,407.731628 
	C924.193420,365.867279 933.064087,323.903229 941.955444,281.945862 
	C946.603821,260.010590 955.585632,239.930359 967.373169,221.024414 
	C968.459778,219.281555 970.989624,217.119247 972.556152,217.330109 
	C974.497192,217.591400 976.886902,219.778763 977.786499,221.731323 
	C991.991333,252.563141 1005.401489,283.774292 1020.169250,314.330383 
	C1042.389404,360.306000 1056.437622,409.426392 1076.082275,456.367218 
	C1088.284546,485.524567 1100.917725,514.501587 1113.326050,543.572937 
	C1114.299683,545.854248 1114.960693,548.267090 1115.879395,550.574097 
	C1118.031128,555.976929 1122.480103,557.640991 1126.999268,554.078430 
	C1131.006592,550.919250 1134.796509,547.242004 1137.861938,543.174988 
	C1147.604614,530.249023 1160.896973,521.576782 1173.971802,512.776001 
	C1192.888794,500.042633 1213.156250,490.087128 1236.050659,486.680634 
	C1260.170288,483.091858 1282.274902,487.735535 1300.693848,504.385651 
	C1307.549438,510.582886 1313.292114,518.074768 1319.113037,525.321045 
	C1321.331787,528.083313 1323.366699,529.812683 1326.921509,529.097778 
	C1339.433228,526.581604 1352.140747,524.771484 1364.414551,521.388977 
	C1403.537842,510.607056 1442.599731,499.572784 1482.621582,492.600647 
	C1497.168823,490.066437 1511.981079,489.052429 1526.676514,487.380280 
	C1527.047729,487.338074 1527.466309,487.712067 1528.854248,488.341949 
	C1519.116577,491.056213 1510.224121,493.347198 1501.445068,496.011932 
	C1438.882202,515.002136 1378.735840,539.347839 1324.605103,576.768982 
	C1292.352051,599.065918 1263.465210,625.055054 1244.324341,659.706970 
	C1233.104004,680.019714 1224.443237,701.796021 1215.352661,723.220154 
	C1207.560669,741.584167 1200.359497,760.229309 1193.697021,779.033630 
	C1186.985474,797.976868 1182.005981,817.550354 1174.927612,836.343079 
	C1164.434326,864.202026 1150.567749,890.371277 1130.952026,913.094543 
	C1112.132568,934.895142 1093.683960,957.011841 1069.571167,973.541016 
	C1046.226807,989.543518 1020.920776,1000.416321 993.548584,1007.716980 
	C969.185486,1014.215027 945.199646,1022.433167 921.559692,1031.263794 
	C888.094055,1043.764893 856.040100,1059.460205 827.397217,1081.067261 
	C815.766235,1089.841064 805.429565,1100.379028 794.823792,1110.451050 
	C782.154541,1122.482666 769.827942,1134.875122 756.681519,1147.769653 
	C756.681519,1141.745972 756.901917,1136.062012 756.594116,1130.406738 
	C756.424805,1127.295410 755.366943,1124.232422 754.709656,1121.147705 
	C752.600891,1123.617188 749.964294,1125.804077 748.466187,1128.600708 
	C735.810730,1152.225708 723.368713,1175.964966 710.838318,1199.656982 
	C710.172974,1200.914917 709.289856,1202.057739 707.823853,1204.301514 
	C704.871033,1197.985229 706.476624,1192.385010 706.205200,1187.055176 
	C705.908936,1181.237305 706.137939,1175.392700 706.137939,1169.559692 
	C706.137939,1163.901001 706.137878,1158.242310 706.137878,1151.561890 
	C704.420044,1152.868774 703.251892,1153.598633 702.271240,1154.526611 
	C669.472351,1185.560547 636.978271,1216.923828 603.829346,1247.578979 
	C568.829956,1279.945068 532.457153,1310.716919 492.190277,1336.489624 
	C483.890533,1341.802002 474.843048,1345.946045 466.140198,1350.628662 
	C465.586945,1350.097900 465.033691,1349.567139 464.480438,1349.036377 
	C465.546844,1346.640137 466.220642,1343.953857 467.742462,1341.893921 
	C478.815338,1326.906128 489.194946,1311.288452 501.432251,1297.303467 
	C525.339111,1269.982422 550.540466,1243.798706 574.761536,1216.746216 
	C589.198486,1200.621460 602.646790,1183.616089 616.796448,1167.228638 
	C637.151611,1143.654053 657.806946,1120.338745 678.171997,1096.772583 
	C682.070923,1092.260742 685.220093,1087.100952 688.902649,1081.932983 
z"/>
</svg>
