<svg xmlns="http://www.w3.org/2000/svg" viewBox="0 0 495 478" fill="white">
  <!-- Right wing (upper-right lobe) -->
  <ellipse cx="275" cy="118" rx="42" ry="100" transform="rotate(22 275 118)"/>
  <!-- Left wing (upper-left lobe) -->
  <ellipse cx="148" cy="115" rx="40" ry="96" transform="rotate(-24 148 115)"/>
  <!-- Wing-body bridge (fills valley between wings at body) -->
  <ellipse cx="215" cy="192" rx="60" ry="40"/>
  <!-- Body -->
  <ellipse cx="210" cy="272" rx="78" ry="62" transform="rotate(-10 210 272)"/>
  <!-- Neck -->
  <ellipse cx="268" cy="220" rx="44" ry="32"/>
  <!-- Head -->
  <circle cx="320" cy="225" r="47"/>
  <!-- Beak -->
  <path d="M 360 212 L 478 202 L 360 240 Z"/>
  <!-- Tail -->
  <path d="M 148 305 C 115 340 78 378 42 415 L 10 455 C 42 442 76 425 108 405 C 122 418 138 430 156 436 C 168 420 170 400 162 380 C 156 360 150 334 148 305 Z"/>
</svg>
