<svg xmlns="http://www.w3.org/2000/svg" viewBox="0 0 550 380" fill="white">
  <!-- Body -->
  <path d="M 175 238 C 158 228 148 210 155 190 C 162 170 182 158 210 155 C 240 152 272 160 295 175 C 318 190 328 212 320 232 C 312 252 288 262 258 260 C 228 258 200 248 180 240 Z"/>
  <!-- Head -->
  <circle cx="348" cy="192" r="35"/>
  <!-- Beak -->
  <path d="M 376 180 L 490 158 L 378 206 Z"/>
  <!-- Upper wing front -->
  <path d="M 300 188 C 316 158 340 110 370 72 C 348 100 322 142 306 182 Z"/>
  <!-- Upper wing center -->
  <path d="M 275 182 C 275 148 275 95 278 52 C 275 88 272 138 272 178 Z"/>
  <!-- Upper wing rear -->
  <path d="M 248 182 C 230 148 205 95 175 58 C 195 90 218 138 245 178 Z"/>
  <!-- Lower wing -->
  <path d="M 258 228 C 232 248 198 275 172 298 C 192 278 222 255 252 238 Z"/>
  <!-- Tail top -->
  <path d="M 168 228 C 130 228 88 220 52 232 C 85 226 128 228 165 232 Z"/>
  <!-- Tail mid -->
  <path d="M 165 238 C 125 246 80 246 42 260 C 78 252 122 250 162 244 Z"/>
  <!-- Tail bottom -->
  <path d="M 162 248 C 120 260 72 265 32 280 C 70 268 118 262 158 256 Z"/>
</svg>
